<?xml version="1.0" standalone="no"?>
<!DOCTYPE svg PUBLIC "-//W3C//DTD SVG 20010904//EN"
 "http://www.w3.org/TR/2001/REC-SVG-20010904/DTD/svg10.dtd">
<svg version="1.0" xmlns="http://www.w3.org/2000/svg"
 width="324.000000pt" height="318.000000pt" viewBox="0 0 324.000000 318.000000"
 preserveAspectRatio="xMidYMid meet">

<g transform="translate(0.000000,318.000000) scale(0.100000,-0.100000)"
fill="#000000" stroke="none">
<path d="M1620 2915 l0 -255 268 0 267 0 -3 -265 -3 -265 -263 0 c-202 0 -266
-3 -269 -12 -3 -7 -6 110 -6 260 l-1 272 -805 0 -805 0 0 -1320 0 -1320 805
-2 805 -3 0 255 0 255 -265 -3 -265 -3 2 276 3 276 263 -1 262 -1 0 266 0 265
275 0 275 0 0 -265 0 -265 -270 0 -270 0 0 -270 0 -270 810 0 810 0 0 1325 0
1325 -810 0 -810 0 0 -255z m-602 -887 l3 -68 -131 0 -130 0 0 -25 0 -25 130
0 130 0 0 -55 0 -55 -127 0 -128 0 0 -25 0 -25 128 0 128 0 -3 -67 -3 -68
-207 -3 -208 -2 0 238 c0 131 3 242 7 246 4 3 97 5 207 4 l201 -3 3 -67z m468
57 c72 -30 73 -35 74 -267 l0 -208 -80 0 -80 0 0 95 0 95 -72 0 -73 0 0 -92 0
-93 -77 -3 -78 -3 0 203 c0 205 1 209 36 256 24 32 285 44 350 17z m594 -55
l0 -70 -135 0 c-128 0 -135 -1 -135 -20 0 -19 7 -20 100 -20 168 0 200 -25
200 -156 0 -142 -28 -157 -283 -152 l-169 3 -1 68 -2 67 151 0 151 0 -5 25
c-4 25 -4 25 -122 25 l-118 0 -26 31 c-24 28 -26 38 -26 118 0 81 2 90 26 114
33 33 39 34 232 36 l162 1 0 -70z m530 0 l0 -70 -135 0 c-126 0 -135 -1 -135
-19 0 -17 10 -19 119 -22 117 -4 120 -5 150 -33 30 -29 31 -32 31 -121 0 -89
-1 -92 -31 -121 l-30 -29 -195 -3 -194 -4 0 71 0 71 150 0 150 0 0 25 0 25
-121 0 c-120 0 -121 0 -150 29 -27 28 -29 34 -29 111 0 68 8 108 26 128 1 2
20 10 41 17 26 10 89 14 196 15 l157 0 0 -70z m550 0 l0 -70 -75 0 -75 0 -2
-172 -3 -173 -77 -3 -78 -3 0 176 0 175 -75 0 -75 0 0 63 c0 35 3 67 7 70 3 4
107 7 230 7 l223 0 0 -70z m-2340 -465 c0 -9 12 -52 26 -95 l25 -79 99 -3 99
-3 -79 -58 c-90 -66 -87 -53 -44 -179 13 -38 21 -68 18 -68 -3 0 -38 25 -79
56 l-73 55 -39 -25 c-21 -14 -60 -41 -87 -61 -26 -21 -45 -32 -42 -26 4 6 20
52 35 101 l29 90 -80 57 -81 58 100 3 99 3 23 77 c12 42 25 85 28 95 5 21 23
23 23 2z"/>
<path d="M1254 1935 c1 -24 3 -25 74 -25 70 0 72 1 72 25 0 24 -2 25 -74 25
-73 0 -74 0 -72 -25z"/>
</g>
</svg>
